<?xml version="1.0" encoding="UTF-8"?>
<svg id="Layer_2" data-name="Layer 2" xmlns="http://www.w3.org/2000/svg" width="100%" height="100%" viewBox="0 0 107.65 48.53">
  <defs>
    <style>
      .cls-1 {
        fill: #1a1a1a;
      }
    </style>
  </defs>
  <g id="Layer_1-2" data-name="Layer 1">
    <g>
      <g>
        <path class="cls-1" d="M59.61,42.21v-4.2h-.73v-.49h.73v-1.84h.75v1.84h.98v.49h-.98v4.13c0,.57.08.79.52.79.12,0,.29-.02.43-.05v.57c-.22.04-.43.06-.64.06-.87,0-1.07-.54-1.07-1.3Z"/>
        <path class="cls-1" d="M64.9,41.21v-1.5c0-1.75.51-2.3,1.61-2.3,1.24,0,1.54.78,1.54,2.45v.53h-2.4v1.04c0,1.16.25,1.53.85,1.53.46,0,.81-.21.81-1.14v-.41h.73v.33c0,1.08-.39,1.79-1.54,1.79s-1.6-.6-1.6-2.32ZM67.31,39.97v-.49c0-.93-.08-1.5-.81-1.5-.62,0-.85.33-.85,1.59v.4h1.66Z"/>
        <path class="cls-1" d="M71.82,41.19v-1.38c0-1.64.32-2.39,1.59-2.39s1.51.77,1.51,1.9v.29h-.7v-.29c0-1.04-.22-1.33-.81-1.33-.71,0-.84.45-.84,1.7v1.66c0,1.19.17,1.62.85,1.62s.8-.46.8-1.43v-.33h.7v.29c0,1.2-.23,2.03-1.51,2.03-1.38,0-1.59-1-1.59-2.34Z"/>
        <path class="cls-1" d="M78.8,35.13h.75v3c.39-.42.88-.72,1.45-.72s.91.46.91,1.26v4.76h-.76v-4.59c0-.62-.18-.84-.56-.84-.34,0-.72.24-1.04.56v4.87h-.75v-8.31Z"/>
        <path class="cls-1" d="M85.89,37.51h.75v.62c.38-.41.87-.71,1.43-.71.58,0,.91.46.91,1.26v4.76h-.75v-4.59c0-.62-.18-.84-.56-.84-.35,0-.72.24-1.03.55v4.88h-.75v-5.93Z"/>
        <path class="cls-1" d="M93.04,35.68h.75v1.02h-.75v-1.02ZM93.04,37.51h.75v5.93h-.75v-5.93Z"/>
        <path class="cls-1" d="M97.81,41.19v-1.38c0-1.64.32-2.39,1.59-2.39s1.51.77,1.51,1.9v.29h-.7v-.29c0-1.04-.21-1.33-.81-1.33-.71,0-.84.45-.84,1.7v1.66c0,1.19.17,1.62.85,1.62s.8-.46.8-1.43v-.33h.7v.29c0,1.2-.22,2.03-1.51,2.03-1.38,0-1.59-1-1.59-2.34Z"/>
        <path class="cls-1" d="M104.53,41.85l.62-.2c.08.91.43,1.31,1.04,1.31.51,0,.81-.31.81-.84,0-.39-.21-.77-.72-1.19l-.81-.7c-.53-.44-.81-.85-.81-1.49,0-.85.56-1.33,1.42-1.33.9,0,1.35.65,1.41,1.56l-.53.17c-.04-.8-.33-1.17-.84-1.17-.46,0-.76.27-.76.72,0,.36.11.59.48.93l.84.75c.48.43.98.9.98,1.72,0,.92-.61,1.43-1.52,1.43s-1.53-.66-1.61-1.68Z"/>
      </g>
      <g>
        <path class="cls-1" d="M42.58,46.78c-1.13,0-2.18-.44-2.97-1.23l-11.02-11.02c-.11-.11-.27-.18-.42-.18-.07,0-.14.01-.21.04-1.18.43-2.42.65-3.69.65-5.94,0-10.78-4.84-10.78-10.78,0-1.35.25-2.66.73-3.91l8.04,8.09c.12.12.27.18.42.18s.31-.06.42-.18l5.35-5.34c.11-.11.18-.27.18-.42s-.06-.31-.18-.42l-8.08-8.08c1.2-.44,2.53-.69,3.9-.69,5.94,0,10.78,4.84,10.78,10.78,0,.63-.06,1.26-.17,1.87-.11.61-.27,1.22-.49,1.81-.08.22-.03.47.14.63l11.02,11.02c.79.79,1.23,1.85,1.23,2.97s-.44,2.18-1.23,2.97c-.79.79-1.85,1.23-2.97,1.23Z"/>
        <path class="cls-1" d="M24.27,48.53c-1.62,0-3.24-.16-4.8-.48l-.3-3.59c-.02-.25-.19-.46-.44-.53-1.56-.44-3.06-1.06-4.46-1.85-.09-.05-.19-.08-.29-.08-.14,0-.28.05-.39.14l-2.75,2.32c-2.71-1.8-4.99-4.08-6.79-6.79l2.32-2.75c.16-.19.19-.46.06-.68-.79-1.41-1.41-2.91-1.85-4.46-.07-.24-.28-.42-.53-.44l-3.58-.3c-.32-1.57-.48-3.18-.48-4.8s.16-3.24.48-4.8l3.58-.3c.25-.02.46-.2.53-.44.43-1.55,1.06-3.05,1.85-4.46.12-.22.1-.49-.06-.68l-2.32-2.75c1.8-2.7,4.08-4.99,6.79-6.79l2.75,2.32c.11.09.25.14.39.14.1,0,.2-.03.29-.08,1.41-.79,2.91-1.41,4.46-1.85.24-.07.41-.28.44-.53l.3-3.58c1.56-.32,3.17-.48,4.78-.48s3.25.16,4.81.48l.3,3.58c.02.25.19.46.44.53,1.55.44,3.05,1.06,4.46,1.85.09.05.19.08.29.08.14,0,.28-.05.39-.14l2.75-2.32c2.7,1.8,4.99,4.08,6.79,6.79l-2.32,2.75c-.16.19-.19.46-.06.68.79,1.41,1.41,2.91,1.85,4.46.07.24.28.41.53.44l3.58.3c.32,1.57.48,3.18.48,4.8s-.16,3.23-.48,4.8l-3.58.3c-.25.02-.46.19-.53.44-.18.66-.41,1.32-.69,2.01l-4.32-4.32c.23-1.06.35-2.15.35-3.23,0-8.28-6.74-15.02-15.02-15.02-8.28,0-15.02,6.74-15.02,15.02,0,8.28,6.74,15.02,15.02,15.02,1.2,0,2.42-.15,3.63-.45l4.28,4.28c-.78.33-1.57.61-2.37.83-.24.07-.41.28-.44.53l-.3,3.59c-1.57.32-3.19.48-4.8.48h0Z"/>
      </g>
      <g>
        <path class="cls-1" d="M58.85,8.41h5.7c3.76,0,6.97.86,6.97,5.73,0,2.65-1.22,4.03-3.22,4.41,2.54.32,3.89,2.16,3.89,5.27,0,4.54-2.41,6.49-6.62,6.49h-6.73V8.41ZM64.64,17.16c2.19,0,2.65-1.05,2.65-2.89,0-1.73-.95-2.62-2.76-2.62h-.84v5.51h.95ZM64.72,26.92c2.13,0,2.81-1.08,2.81-3.19,0-2.46-.73-3.38-2.84-3.38h-1v6.57h1.03Z"/>
        <path class="cls-1" d="M73.39,8.41h4.13l2.35,14.86,2.19-14.86h4.38l-4,21.89h-5.11l-3.95-21.89Z"/>
        <path class="cls-1" d="M90.87,8.41h5.51l4.08,21.89h-4.46l-.73-4.62h-3.22l-.76,4.62h-4.57l4.13-21.89ZM94.81,22.78l-1.16-8.54-1.16,8.54h2.32Z"/>
      </g>
    </g>
  </g>
</svg>