<?xml version="1.0" encoding="UTF-8"?>
<svg xmlns="http://www.w3.org/2000/svg" id="Layer_2" data-name="Layer 2" viewBox="0 0 107.65 48.53">
  <defs>
    <style>
      .color {
          fill: #00AEEF;
      }
    </style>
  </defs>
  <g id="Layer_1" data-name="Layer 1">
    <path d="M59.61 42.21v-4.2h-.73v-.49h.73v-1.84h.75v1.84h.98v.49h-.98v4.13c0 .57.08.79.52.79.12 0 .29-.02.43-.05v.57c-.22.04-.43.06-.64.06-.87 0-1.07-.54-1.07-1.3Z" class="color"/>
    <path d="M64.9 41.21v-1.5c0-1.75.51-2.3 1.61-2.3 1.24 0 1.54.78 1.54 2.45v.53h-2.4v1.04c0 1.16.25 1.53.85 1.53.46 0 .81-.21.81-1.14v-.41h.73v.33c0 1.08-.39 1.79-1.54 1.79s-1.6-.6-1.6-2.32Zm2.41-1.24v-.49c0-.93-.08-1.5-.81-1.5-.62 0-.85.33-.85 1.59v.4h1.66Z" class="color"/>
    <path d="M71.82 41.19v-1.38c0-1.64.32-2.39 1.59-2.39s1.51.77 1.51 1.9v.29h-.7v-.29c0-1.04-.22-1.33-.81-1.33-.71 0-.84.45-.84 1.7v1.66c0 1.19.17 1.62.85 1.62s.8-.46.8-1.43v-.33h.7v.29c0 1.2-.23 2.03-1.51 2.03-1.38 0-1.59-1-1.59-2.34Z" class="color"/>
    <path d="M78.8 35.13h.75v3c.39-.42.88-.72 1.45-.72s.91.46.91 1.26v4.76h-.76v-4.59c0-.62-.18-.84-.56-.84-.34 0-.72.24-1.04.56v4.87h-.75v-8.31Z" class="color"/>
    <path d="M85.89 37.51h.75v.62c.38-.41.87-.71 1.43-.71.58 0 .91.46.91 1.26v4.76h-.75v-4.59c0-.62-.18-.84-.56-.84-.35 0-.72.24-1.03.55v4.88h-.75v-5.93Z" class="color"/>
    <path d="M93.04 35.68h.75v1.02h-.75v-1.02Zm0 1.83h.75v5.93h-.75v-5.93Z" class="color"/>
    <path d="M97.81 41.19v-1.38c0-1.64.32-2.39 1.59-2.39s1.51.77 1.51 1.9v.29h-.7v-.29c0-1.04-.21-1.33-.81-1.33-.71 0-.84.45-.84 1.7v1.66c0 1.19.17 1.62.85 1.62s.8-.46.8-1.43v-.33h.7v.29c0 1.2-.22 2.03-1.51 2.03-1.38 0-1.59-1-1.59-2.34Z" class="color"/>
    <path d="m104.53 41.85.62-.2c.08.91.43 1.31 1.04 1.31.51 0 .81-.31.81-.84 0-.39-.21-.77-.72-1.19l-.81-.7c-.53-.44-.81-.85-.81-1.49 0-.85.56-1.33 1.42-1.33.9 0 1.35.65 1.41 1.56l-.53.17c-.04-.8-.33-1.17-.84-1.17-.46 0-.76.27-.76.72 0 .36.11.59.48.93l.84.75c.48.43.98.9.98 1.72 0 .92-.61 1.43-1.52 1.43s-1.53-.66-1.61-1.68Z" class="color"/>
    <path d="M42.58 46.78a4.17 4.17 0 0 1-2.97-1.23L28.59 34.53a.62.62 0 0 0-.42-.18.52.52 0 0 0-.21.04 10.8 10.8 0 0 1-13.74-14.04l8.04 8.09a.58.58 0 0 0 .84 0l5.35-5.34a.58.58 0 0 0 0-.84l-8.08-8.08c1.2-.44 2.53-.69 3.9-.69a10.8 10.8 0 0 1 10.12 14.46.59.59 0 0 0 .14.63L45.55 39.6a4.18 4.18 0 0 1 0 5.94 4.18 4.18 0 0 1-2.97 1.23Z" class="color"/>
    <path d="M24.27 48.53c-1.62 0-3.24-.16-4.8-.48l-.3-3.59a.6.6 0 0 0-.44-.53 20.28 20.28 0 0 1-4.46-1.85.6.6 0 0 0-.29-.08.62.62 0 0 0-.39.14l-2.75 2.32a24.12 24.12 0 0 1-6.79-6.79l2.32-2.75a.59.59 0 0 0 .06-.68 20.69 20.69 0 0 1-1.85-4.46.61.61 0 0 0-.53-.44l-3.58-.3a24.05 24.05 0 0 1 0-9.6l3.58-.3c.25-.02.46-.2.53-.44a20.2 20.2 0 0 1 1.85-4.46.6.6 0 0 0-.06-.68l-2.32-2.75c1.8-2.7 4.08-4.99 6.79-6.79l2.75 2.32c.11.09.25.14.39.14.1 0 .2-.03.29-.08a20.69 20.69 0 0 1 4.46-1.85.62.62 0 0 0 .44-.53l.3-3.58a23.85 23.85 0 0 1 9.59 0l.3 3.58a.6.6 0 0 0 .44.53c1.55.44 3.05 1.06 4.46 1.85a.6.6 0 0 0 .29.08c.14 0 .28-.05.39-.14l2.75-2.32c2.7 1.8 4.99 4.08 6.79 6.79l-2.32 2.75a.59.59 0 0 0-.06.68 20.69 20.69 0 0 1 1.85 4.46c.07.24.28.41.53.44l3.58.3a24.05 24.05 0 0 1 0 9.6l-3.58.3a.6.6 0 0 0-.53.44c-.18.66-.41 1.32-.69 2.01l-4.32-4.32A15.04 15.04 0 0 0 24.27 9.22 15.04 15.04 0 0 0 9.25 24.24 15.04 15.04 0 0 0 27.9 38.81l4.28 4.28c-.78.33-1.57.61-2.37.83a.62.62 0 0 0-.44.53l-.3 3.59c-1.57.32-3.19.48-4.8.48Z" class="color"/>
    <path d="M58.85 8.41h5.7c3.76 0 6.97.86 6.97 5.73 0 2.65-1.22 4.03-3.22 4.41 2.54.32 3.89 2.16 3.89 5.27 0 4.54-2.41 6.49-6.62 6.49h-6.73V8.41Zm5.79 8.75c2.19 0 2.65-1.05 2.65-2.89 0-1.73-.95-2.62-2.76-2.62h-.84v5.51h.95Zm.08 9.76c2.13 0 2.81-1.08 2.81-3.19 0-2.46-.73-3.38-2.84-3.38h-1v6.57h1.03Z" class="color"/>
    <path d="M73.39 8.41h4.13l2.35 14.86 2.19-14.86h4.38l-4 21.89h-5.11L73.38 8.41Z" class="color"/>
    <path d="M90.87 8.41h5.51l4.08 21.89H96l-.73-4.62h-3.22l-.76 4.62h-4.57l4.13-21.89Zm3.94 14.37-1.16-8.54-1.16 8.54h2.32Z" class="color"/>
  </g>
</svg>